<?xml version="1.0" encoding="UTF-8"?>
<svg id="Layer_2" data-name="Layer 2" xmlns="http://www.w3.org/2000/svg" viewBox="0 0 111.54 147.31">
  <defs>
    <style>
      .cls-1, .cls-2 {
        fill: #fff;
      }

      .cls-2, .cls-3, .cls-4, .cls-5 {
        fill-rule: evenodd;
      }

      .cls-3 {
        fill: #343433;
      }

      .cls-4 {
        fill: #d89987;
      }

      .cls-5 {
        fill: #3fbfb7;
      }

      .cls-6 {
        opacity: .6;
      }
    </style>
  </defs>
  <g id="Layer_1-2" data-name="Layer 1">
    <g class="cls-6">
      <g id="logo">
        <path class="cls-4" d="M33.61,5.86c6.03-8.39,14.7-6.93,22.12-.9V97.04c-.69,1.11-2.7,2.08-5.27,3.61-3.88,2.22-9.29,4.78-13.94,4.58-4.92-.42-9.98-2.7-13.59-8.04-7.21-1.87-12.13-5.2-13.11-14.63-3.47-1.87-6.1-5.62-5.89-11.23-5.82-7.42-4.92-16.99,.97-23.51,0-2.57,.21-3.88,.83-5.89-.42-4.72,2.7-9.08,5.27-11.51,.07-5.48,2.22-9.29,7.07-13.8,1.8-8.39,7.7-11.09,15.53-10.75h0Z"/>
        <path class="cls-5" d="M77.99,5.86c-6.03-8.39-14.7-6.93-22.12-.9V97.04c.69,1.11,2.57,2.08,5.2,3.61,3.88,2.22,9.29,4.78,13.94,4.58,4.92-.42,9.98-2.7,13.59-8.04,7.21-1.87,12.2-5.2,13.11-14.63,3.47-1.87,6.1-5.62,5.89-11.23,5.82-7.42,4.92-16.99-.9-23.51,0-2.57-.21-3.88-.9-5.89,.42-4.72-2.7-9.08-5.27-11.51-.07-5.48-2.22-9.29-7.07-13.8-1.66-8.39-7.7-11.09-15.46-10.75h0Z"/>
        <path class="cls-2" d="M51.92,58.84q0,.07,.07,.21c-.28,.07-.42,.07-.69,.21-1.73,1.39-2.91,2.91-3.61,5.62-.49,1.87-.42,4.02,.07,5.89,0,.21,.07,.42,.07,.49,.28,.83,.69,1.53,1.18,2.22,.49,.97,1.11,1.87,1.39,2.98,.28,1.39,.69,2.7,.97,4.09,.21,.97,.42,2.01,.42,3.12,0,2.01-.49,4.02-.9,5.89-.28,1.39-2.01,.9-1.73-.42,.42-1.8,.9-3.67,.9-5.48,0-.9-.21-1.87-.28-2.77-.28-1.39-.69-2.7-.97-4.02,0-.07-.07-.28-.07-.42-.28-.69-.69-1.53-1.11-2.22-.62-.97-1.18-2.01-1.53-3.19-.49-2.08-.69-4.51-.07-6.73,.42-1.59,1.11-3.12,2.08-4.37-2.5,.42-5.41,.49-7.49,.07-2.57-.49-4.92-1.59-6.73-3.4-.97-.97,.28-2.01,1.18-1.11,1.59,1.59,3.47,2.5,5.82,2.91,2.7,.49,6.8,.07,9.43-.69,.83-.62,1.59-1.18,2.43-1.8,.21-.07,.42-.28,.69-.49,.42,.42,.69,.9,1.11,1.32-.28,.21-.49,.28-.69,.49-.55,.62-1.32,1.11-1.94,1.59h0Zm-16.92,10.05c.9-.07,1.8-.07,2.7,.07,1.8,.49,3.19,1.8,4.37,3.12,.83,.97-.49,2.08-1.39,.97-.9-1.11-2.08-2.22-3.47-2.57-.97-.28-2.29-.21-3.12,.42-.28,.62-.69,1.11-1.11,1.73-1.53,1.8-3.67,2.57-5.82,3.67-2.91,1.53-6.03,2.7-9.08,3.81-2.01,.69-4.23,1.11-6.17,1.73-.28,.07-.62,.21-.9,.21-.21-.49-.28-.97-.49-1.59,.28,0,.49-.07,.83-.21,2.01-.62,4.09-.97,6.1-1.73,2.98-1.11,6.03-2.29,8.94-3.67,1.8-.9,4.02-1.73,5.2-3.19,.28-.42,.49-.83,.83-1.18,.07-.21,.21-.42,.28-.62,.69-1.39,1.18-2.91,1.18-4.51,0-.97,0-2.43-.97-3.12-.49-.42-1.18-.49-1.87-.49-.28,0-.49,.07-.83,.07-1.18,.21-2.43,.62-3.61,1.11-1.39,.49-2.91,1.11-4.51,1.11-1.73,.07-3.47-.62-4.58-1.8-.97-1.11,.49-2.01,1.32-.97,.69,.83,2.08,1.32,3.19,1.18,.21,0,.42,0,.62-.07,1.18-.07,2.29-.62,3.4-.97,1.59-.62,3.19-1.18,4.99-1.18,3.47-.07,4.72,2.29,4.58,5.27,0,1.18-.28,2.29-.62,3.4h0ZM16.97,20.01c1.87-1.11,3.61-1.8,5.82-2.01,.9-.07,1.87-.21,2.7-.21,2.77,0,5.62,.28,7.7,2.22,1.53,1.32,1.59,3.47,1.53,5.27-.07,1.59-.49,3.88,.42,5.41,.69,1.11,2.57,1.39,3.88,1.53,.97,0,1.87,0,2.77-.21,2.43-.42,4.72-1.59,5.48-3.88,.42-1.18,2.08-.9,1.73,.42-.42,1.11-.97,2.08-1.8,2.91-2.08,1.87-5.27,2.57-8.18,2.5-1.87-.07-4.23-.62-5.27-2.22-1.32-1.87-.83-4.23-.62-6.31,.07-1.18,.07-3.12-.97-3.88-1.73-1.53-4.3-1.8-6.59-1.73-.83,0-1.73,0-2.5,.07-1.87,.21-3.47,.9-5.13,1.87-.21,.07-.49,.28-.69,.42-.42,.28-.9,.49-1.32,.83,.07-.69,.28-1.53,.28-2.22,.28-.49,.49-.69,.76-.76h0Zm35.85-6.1c-.9-1.18-2.43-2.29-4.02-2.43-.83-.07-1.73,.07-2.43,.49-1.11,.49-2.43,1.39-2.5,2.7-.07,1.18,.07,2.29,.69,3.4,.49,.9,1.32,1.73,1.59,2.7,.28,.62,.42,1.32,.28,2.01-.21,2.5-2.29,4.51-4.23,6.1-1.11,.9-2.08-.42-1.11-1.18,1.53-1.32,3.4-2.98,3.61-4.99,0-.42,0-.83-.21-1.18-.21-.42-.42-.83-.69-1.11-.28-.49-.62-.9-.9-1.39-.83-1.39-.97-2.77-.9-4.3,0-.21,0-.42,.07-.62,.42-1.59,1.87-2.91,3.47-3.47,.97-.42,2.08-.62,3.19-.62,2.22,.07,4.02,1.53,5.27,3.12,.07,.21,.28,.42,.49,.69-.42,.49-.83,.97-1.18,1.53-.07-.69-.28-1.04-.49-1.46h0ZM8.79,40.53c1.53,2.29,4.37,3.61,7.21,3.61s5.62-.62,8.32-1.11c2.22-.42,4.37-.83,6.73-.83,2.98,0,6.8,.21,9.22,2.08,.97,.83,0,2.22-1.11,1.18-2.01-1.59-5.62-1.73-8.11-1.73-4.99,0-9.92,2.01-15.05,1.87-3.4,0-6.8-1.59-8.74-4.37-.21-.21-.28-.42-.49-.69,.49-.49,.9-.9,1.39-1.39,.21,.69,.49,1.11,.62,1.39h0Zm19.42-12c-.9,1.39-1.59,3.12-1.39,4.78,.21,1.32,1.53,2.22,2.5,2.98,1.39,.97,2.98,2.01,4.78,2.29,2.98,.42,6.1-.42,9.08-.62,2.5-.21,4.99,2.01,5.82,4.09,.9,2.29,.28,5.2-1.39,7.07-1.8,2.01-4.78,2.77-7.49,2.91-.28,.07-.49,.07-.83,.07-1.18-.07-2.43-.49-3.61-.9s-2.57-.9-4.02-.83c-.07,0-.28,0-.42,.07-.62,.28-1.32,.97-1.73,1.53-.42,.42-.69,.9-1.11,1.18-1.8,1.73-4.3,2.91-6.8,3.19h-.83c-.97-.07-1.87-.49-2.7-.9-.62-.28-1.39-.69-2.08-.69h-.42c-1.39,.07-2.7,1.11-3.47,2.08-.9,.97-1.73,2.57-1.59,3.88,.21,2.01,2.43,3.88,4.09,4.92,.69,.42,2.01,.42,2.77,.21,1.18-.42,1.87,.97,.62,1.53-1.32,.42-3.19,.42-4.3-.28-2.22-1.32-4.58-3.47-4.78-6.1-.21-1.73,.83-3.67,1.87-4.99,1.32-1.59,3.19-2.91,5.27-2.77h.42c.9,.07,1.59,.42,2.43,.83,.69,.42,1.73,.9,2.5,.83,2.08-.28,4.3-1.32,5.89-2.7,.42-.42,.69-.69,.97-1.11,.9-.97,1.8-1.87,3.19-2.08,.28-.07,.69-.07,.97-.07,1.32,.07,2.5,.49,3.67,.9,1.11,.42,2.43,.9,3.67,.83,2.22-.07,4.78-.83,6.31-2.43,1.32-1.39,1.73-3.67,1.11-5.41-.49-1.53-2.43-3.19-4.09-3.12-3.19,.28-6.17,.97-9.5,.62-2.08-.21-3.88-1.32-5.62-2.57-1.39-1.11-2.91-2.22-3.19-4.09-.28-2.08,.49-4.09,1.73-5.89,.83-1.25,2.5-.49,1.66,.76h0Zm-3.81,66.01c1.73-.21,4.3-1.18,5.69-2.08,2.98-1.87,5.82-4.23,8.11-6.93,.83-.9,2.29-.07,1.32,1.11-2.43,2.77-5.41,5.13-8.53,7.07-1.59,1.11-4.51,2.22-6.52,2.43-.28,0-.62,.07-.9,.07-.07-.49-.07-1.11-.21-1.59,.42,.07,.76,.07,1.04-.07h0Zm-2.5-11.3c2.01,.28,4.09-.42,6.03-.69,2.08-.42,4.02-1.53,5.69-2.7,.83-.62,1.59-1.11,2.43-1.59,.69-.42,1.53-.9,2.29-.9,1.8-.21,3.61,.69,4.92,1.8s2.22,2.77,2.57,4.37c.49,1.53,.49,3.12,.07,4.58-.42,1.39-1.39,2.5-2.29,3.61-.69,.83-1.53,1.18-2.22,1.8-.97,.83-2.22-.42-1.11-1.32,.62-.49,1.39-.9,2.01-1.53,.69-.9,1.59-1.87,2.01-2.98,.28-1.18,.28-2.57-.07-3.67-.42-1.39-1.11-2.7-2.22-3.67-.9-.83-2.29-1.59-3.61-1.39-.49,.07-1.18,.42-1.59,.69-.83,.49-1.59,.97-2.29,1.59-2.01,1.39-4.02,2.57-6.38,2.98-2.29,.42-4.3,1.11-6.59,.69-1.25-.21-1.18-1.94,.35-1.66h0Zm-15.74-13.31c3.12,1.32,11.02,.83,14.01-.69,.28-.07,.49-.21,.83-.42,.28,.49,.49,.97,.83,1.53-.21,.07-.49,.21-.69,.42-3.47,1.73-11.93,2.22-15.53,.69-.28-.07-.49-.21-.83-.28,.21-.49,.42-.97,.69-1.53,.14,.14,.42,.21,.69,.28h0Z"/>
        <path class="cls-2" d="M70.02,14.67c.28,0,.62,.28,.62,.62,0,.42-.28,.62-.62,.62-.42,0-.69-.21-.69-.62,0-.28,.35-.62,.69-.62h0Zm0-.76c.83,0,1.53,.62,1.53,1.39s-.69,1.39-1.53,1.39-1.53-.62-1.53-1.39c.07-.83,.62-1.39,1.53-1.39h0Z"/>
        <path class="cls-2" d="M69.95,10.02c.42,0,.62,.21,.62,.62,0,.28-.28,.62-.62,.62-.42,0-.62-.28-.62-.62,0-.49,.35-.62,.62-.62h0Zm0-.83c.83,0,1.53,.62,1.53,1.39s-.69,1.39-1.53,1.39-1.53-.62-1.53-1.39,.69-1.39,1.53-1.39h0Z"/>
        <path class="cls-2" d="M69.53,4.96c.28,0,.62,.28,.62,.62,0,.28-.28,.62-.62,.62-.42,0-.69-.28-.69-.62,0-.28,.28-.62,.69-.62h0Zm0-.76c.83,0,1.53,.62,1.53,1.39s-.69,1.39-1.53,1.39-1.53-.62-1.53-1.39c.07-.76,.76-1.39,1.53-1.39h0Z"/>
        <polygon class="cls-2" points="59.27 4.27 69.74 14.32 68.98 15.08 58.44 5.1 59.27 4.27"/>
        <polygon class="cls-2" points="62.04 2.39 69.74 9.61 68.84 10.37 61.35 3.16 62.04 2.39"/>
        <polygon class="cls-2" points="65.65 1.08 69.25 4.61 68.42 5.38 64.47 1.49 65.65 1.08"/>
        <path class="cls-2" d="M78.55,40.05c.42,0,.69,.28,.69,.62,0,.42-.28,.62-.69,.62-.28,0-.62-.28-.62-.62,.07-.35,.35-.62,.62-.62h0Zm0-.83c.83,0,1.53,.62,1.53,1.39s-.69,1.39-1.53,1.39-1.53-.62-1.53-1.39,.76-1.39,1.53-1.39h0Z"/>
        <path class="cls-2" d="M83.33,46.22c.28,0,.62,.21,.62,.62,0,.28-.28,.62-.62,.62-.42,0-.62-.28-.62-.62s.35-.62,.62-.62h0Zm0-.76c.83,0,1.53,.62,1.53,1.39s-.69,1.39-1.53,1.39-1.53-.62-1.53-1.39,.76-1.39,1.53-1.39h0Z"/>
        <path class="cls-2" d="M86.87,49.41c.28,0,.62,.28,.62,.62s-.28,.62-.62,.62c-.28,0-.62-.28-.62-.62-.07-.28,.21-.62,.62-.62h0Zm0-.76c.83,0,1.53,.62,1.53,1.39s-.69,1.39-1.53,1.39-1.53-.62-1.53-1.39,.62-1.39,1.53-1.39h0Z"/>
        <path class="cls-2" d="M93.38,47.05c.28,0,.62,.28,.62,.62s-.28,.62-.62,.62c-.42,0-.69-.28-.69-.62s.28-.62,.69-.62h0Zm0-.83c.83,0,1.53,.62,1.53,1.39s-.69,1.39-1.53,1.39-1.53-.62-1.53-1.39,.69-1.39,1.53-1.39h0Z"/>
        <path class="cls-2" d="M89.36,26.94c.28,0,.62,.28,.62,.62,0,.28-.28,.62-.62,.62-.42,0-.62-.28-.62-.62-.07-.35,.21-.62,.62-.62h0Zm0-.83c.83,0,1.53,.62,1.53,1.39s-.62,1.39-1.53,1.39c-.83,0-1.53-.62-1.53-1.39-.07-.76,.62-1.39,1.53-1.39h0Z"/>
        <path class="cls-2" d="M92.97,30.62c.28,0,.62,.28,.62,.62,0,.28-.28,.62-.62,.62-.42,0-.62-.28-.62-.62,.07-.35,.35-.62,.62-.62h0Zm0-.83c.83,0,1.53,.62,1.53,1.39s-.69,1.39-1.53,1.39c-.9,0-1.53-.62-1.53-1.39s.76-1.39,1.53-1.39h0Z"/>
        <path class="cls-2" d="M96.85,34.71c.42,0,.69,.28,.69,.62,0,.42-.28,.62-.69,.62-.28,0-.62-.28-.62-.62s.35-.62,.62-.62h0Zm0-.76c.9,0,1.53,.62,1.53,1.39,0,.83-.69,1.39-1.53,1.39s-1.53-.62-1.53-1.39c.07-.83,.76-1.39,1.53-1.39h0Z"/>
        <path class="cls-2" d="M76.67,15.78c.28,0,.62,.28,.62,.62s-.28,.62-.62,.62c-.42,0-.62-.28-.62-.62,0-.42,.21-.62,.62-.62h0Zm0-.9c.83,0,1.53,.62,1.53,1.39s-.62,1.39-1.53,1.39c-.83,0-1.53-.62-1.53-1.39,0-.69,.69-1.39,1.53-1.39h0Z"/>
        <path class="cls-2" d="M71.68,45.32c.42,0,.62,.28,.62,.62,0,.42-.21,.62-.62,.62-.28,0-.62-.28-.62-.62-.14-.35,.21-.62,.62-.62h0Zm0-.76c.9,0,1.53,.62,1.53,1.39s-.69,1.39-1.53,1.39-1.53-.62-1.53-1.39,.62-1.39,1.53-1.39h0Z"/>
        <path class="cls-2" d="M67.94,48.23c.28,0,.62,.28,.62,.62s-.28,.62-.62,.62c-.42,0-.62-.28-.62-.62s.35-.62,.62-.62h0Zm0-.83c.83,0,1.53,.62,1.53,1.39s-.69,1.39-1.53,1.39-1.53-.62-1.53-1.39c.07-.62,.76-1.39,1.53-1.39h0Z"/>
        <path class="cls-2" d="M83.54,86.16c.42,0,.62,.21,.62,.62,0,.28-.28,.62-.62,.62-.42,0-.62-.28-.62-.62,.07-.42,.35-.62,.62-.62h0Zm0-.9c.83,0,1.53,.62,1.53,1.39,0,.83-.69,1.39-1.53,1.39s-1.53-.62-1.53-1.39c.07-.69,.76-1.39,1.53-1.39h0Z"/>
        <path class="cls-2" d="M78.06,91.77c.28,0,.62,.28,.62,.62,0,.42-.28,.62-.62,.62-.42,0-.69-.21-.69-.62,.07-.35,.42-.62,.69-.62h0Zm0-.83c.83,0,1.53,.62,1.53,1.39,0,.83-.69,1.39-1.53,1.39-.9,0-1.53-.69-1.53-1.39,0-.62,.76-1.39,1.53-1.39h0Z"/>
        <path class="cls-2" d="M73.07,61.26c.21-.21,.62-.21,.9,0s.28,.62,0,.83c-.21,.21-.62,.21-.9,0s-.35-.55,0-.83h0Zm-.62-.62c.62-.49,1.53-.49,2.08,0,.62,.62,.62,1.39,0,2.01-.62,.55-1.53,.62-2.08,0-.62-.49-.62-1.39,0-2.01h0Z"/>
        <path class="cls-2" d="M78.06,73.68c.28,0,.62,.28,.62,.62,0,.28-.28,.62-.62,.62-.42,0-.69-.28-.69-.62,.07-.35,.42-.62,.69-.62h0Zm0-.83c.83,0,1.53,.69,1.53,1.39,0,.83-.69,1.39-1.53,1.39-.9,0-1.53-.69-1.53-1.39s.76-1.39,1.53-1.39h0Z"/>
        <path class="cls-2" d="M59.55,48.44c.21-.21,.62-.21,.9,0,.21,.21,.21,.62,0,.9-.28,.21-.69,.21-.9,0-.28-.28-.28-.62,0-.9h0Zm-.62-.62c.49-.62,1.53-.62,2.08,0,.62,.62,.62,1.39,0,2.01s-1.59,.62-2.08,0c-.55-.49-.55-1.39,0-2.01h0Z"/>
        <path class="cls-2" d="M63.57,23.2c.28,0,.62,.28,.62,.62,0,.28-.28,.62-.62,.62-.42,0-.69-.28-.69-.62,.07-.28,.35-.62,.69-.62h0Zm0-.76c.83,0,1.53,.62,1.53,1.39s-.62,1.39-1.53,1.39c-.83,0-1.53-.62-1.53-1.39s.69-1.39,1.53-1.39h0Z"/>
        <path class="cls-2" d="M87.56,86.78c.28,0,.62,.28,.62,.62s-.28,.62-.62,.62c-.42,0-.62-.28-.62-.62-.07-.35,.21-.62,.62-.62h0Zm0-.83c.83,0,1.53,.62,1.53,1.39s-.69,1.39-1.53,1.39-1.53-.62-1.53-1.39,.69-1.39,1.53-1.39h0Z"/>
        <path class="cls-2" d="M92,87.06c.28,0,.62,.28,.62,.62s-.28,.62-.62,.62-.62-.28-.62-.62c0-.28,.21-.62,.62-.62h0Zm0-.76c.83,0,1.53,.62,1.53,1.39,0,.83-.69,1.39-1.53,1.39s-1.53-.62-1.53-1.39c0-.83,.62-1.39,1.53-1.39h0Z"/>
        <path class="cls-2" d="M98.31,63.55c.42,0,.69,.28,.69,.62,0,.42-.28,.62-.69,.62-.28,0-.62-.28-.62-.62,0-.42,.21-.62,.62-.62h0Zm0-.83c.83,0,1.53,.62,1.53,1.39,0,.83-.69,1.39-1.53,1.39s-1.53-.62-1.53-1.39,.62-1.39,1.53-1.39h0Z"/>
        <path class="cls-2" d="M105.66,62.37c.28,0,.62,.28,.62,.62,0,.42-.28,.62-.62,.62-.42,0-.62-.21-.62-.62,.07-.35,.28-.62,.62-.62h0Zm0-.83c.83,0,1.53,.62,1.53,1.39,0,.83-.69,1.39-1.53,1.39s-1.53-.62-1.53-1.39c.07-.76,.76-1.39,1.53-1.39h0Z"/>
        <polygon class="cls-2" points="64.12 38.1 71.33 45.04 70.57 45.73 62.94 38.66 62.94 24.58 64.12 24.58 64.12 38.1"/>
        <polygon class="cls-2" points="68.15 36.09 77.16 44.83 77.16 52.25 88.05 62.65 88.05 86.64 86.87 86.64 86.87 63.07 76.05 52.67 76.05 45.25 67.04 36.65 67.04 20.28 68.15 20.28 68.15 36.09"/>
        <polygon class="cls-2" points="71.33 32.7 78.34 39.42 77.58 40.25 70.23 33.11 70.23 20.01 71.33 20.01 71.33 32.7"/>
        <polygon class="cls-2" points="73.55 29.99 84.09 39.7 84.09 46.01 82.85 46.01 82.85 40.25 72.37 30.48 72.37 18.62 73.55 18.62 73.55 29.99"/>
        <polygon class="cls-2" points="77.3 28.12 87.35 38.1 87.35 49.13 86.24 49.13 86.24 38.52 76.05 28.54 76.05 17.3 77.3 17.3 77.3 28.12"/>
        <polygon class="cls-2" points="80.97 25.83 93.8 38.1 93.8 46.84 92.69 46.84 92.69 38.66 79.86 26.32 79.86 6.76 80.97 6.76 80.97 25.83"/>
        <polygon class="cls-2" points="85.34 18 90.06 18 90.06 26.73 88.88 26.73 88.88 19.1 84.23 19.1 84.23 7.66 85.34 7.66 85.34 18"/>
        <polygon class="cls-2" points="88.25 12.17 93.59 17.23 93.59 30.41 92.41 30.41 92.41 17.58 87.07 12.73 87.07 7.87 88.25 7.87 88.25 12.17"/>
        <rect class="cls-1" x="96.37" y="20.84" width="1.11" height="13.73"/>
        <polygon class="cls-2" points="92.55 65.98 92.55 86.85 91.37 86.85 91.37 65.42 100.87 56.27 100.87 31.72 101.98 31.72 101.98 56.76 92.55 65.98"/>
        <path class="cls-2" d="M95.95,86.85c.83,0,1.53,.69,1.53,1.39,0,.83-.62,1.39-1.53,1.39s-1.53-.62-1.53-1.39c.07-.69,.76-1.39,1.53-1.39h0Z"/>
        <polygon class="cls-2" points="97.75 78.18 97.75 64.87 98.86 64.87 98.86 78.53 96.57 80.96 96.57 88.86 95.4 88.86 95.4 80.54 97.75 78.18"/>
        <polygon class="cls-2" points="102.61 66.74 102.61 81.86 101.5 81.86 101.5 66.26 104.62 63.27 105.52 63.97 102.61 66.74"/>
        <polygon class="cls-2" points="82.98 64.18 67.73 49.61 68.63 48.85 84.16 63.76 84.16 86.09 82.98 86.09 82.98 64.18"/>
        <rect class="cls-1" x="77.44" y="75.06" width="1.18" height="16.5"/>
        <polygon class="cls-2" points="60.93 49.06 73.35 60.71 72.44 61.54 60.17 49.82 60.93 49.06"/>
        <path class="cls-2" d="M72.86,65.77c.21-.21,.62-.21,.9,0s.28,.62,0,.83c-.28,.21-.69,.21-.9,0-.21-.28-.21-.55,0-.83h0Zm-.62-.49c.62-.62,1.53-.62,2.08,0,.62,.62,.62,1.39,0,2.01-.62,.49-1.53,.49-2.08,0-.55-.62-.55-1.53,0-2.01h0Z"/>
        <path class="cls-2" d="M68.08,71.53c.21-.21,.62-.21,.9,0s.28,.62,0,.9c-.28,.21-.62,.21-.9,0-.35-.28-.35-.69,0-.9h0Zm-.62-.55c.62-.49,1.53-.49,2.08,0,.49,.62,.49,1.53,0,2.01-.62,.62-1.53,.62-2.08,0-.62-.55-.62-1.53,0-2.01h0Z"/>
        <path class="cls-2" d="M67.52,86.57c.21-.21,.62-.21,.9,0,.21,.21,.21,.62,0,.9-.28,.21-.62,.21-.9,0s-.28-.62,0-.9h0Zm-.55-.49c.62-.62,1.53-.62,2.08,0,.62,.49,.62,1.39,0,2.01-.62,.49-1.53,.49-2.08,0-.62-.62-.62-1.53,0-2.01h0Z"/>
        <path class="cls-2" d="M69.88,89.35c.28-.21,.69-.21,.9,0s.21,.62,0,.9c-.28,.21-.69,.21-.9,0-.21-.28-.21-.69,0-.9h0Zm-.62-.55c.62-.49,1.53-.49,2.08,0,.62,.62,.62,1.39,0,2.01s-1.53,.62-2.08,0c-.62-.55-.62-1.46,0-2.01h0Z"/>
        <path class="cls-2" d="M69.88,96.42c.28-.21,.62-.21,.9,0,.21,.21,.21,.62,0,.9-.28,.21-.62,.21-.9,0-.35-.35-.35-.76,0-.9h0Zm-.62-.62c.62-.62,1.53-.62,2.08,0,.62,.62,.62,1.53,0,2.01-.62,.62-1.53,.62-2.08,0-.62-.49-.62-1.39,0-2.01h0Z"/>
        <polygon class="cls-2" points="57.26 50.17 73.14 65.28 72.24 66.05 56.43 50.93 57.26 50.17"/>
        <polygon class="cls-2" points="67.94 64.04 56.84 53.43 57.61 52.67 69.05 63.62 69.05 71.04 67.94 71.04 67.94 64.04"/>
        <polygon class="cls-2" points="69.74 78.18 56.57 65.77 57.33 64.94 70.85 77.77 70.85 88.86 69.74 88.86 69.74 78.18"/>
        <polygon class="cls-2" points="64.12 89.9 70.16 95.66 69.25 96.49 63.08 90.39 63.08 71.39 64.12 71.39 64.12 89.9"/>
        <polygon class="cls-2" points="67.31 80.75 63.36 76.73 64.12 76.03 68.42 80.26 68.42 86.16 67.31 86.16 67.31 80.75"/>
        <path class="cls-3" d="M45.75,127.9h19.83c1.11,0,1.87,.9,1.87,1.87h0c0,1.11-.83,1.87-1.87,1.87h-19.83c-.97,0-1.87-.9-1.87-1.87h0c-.07-.97,.83-1.87,1.87-1.87h0Z"/>
        <path class="cls-3" d="M45.75,138.23h19.83c1.11,0,1.87,.9,1.87,1.87h0c0,.97-.83,1.87-1.87,1.87h-19.83c-.97,0-1.87-.9-1.87-1.87h0c-.07-.97,.83-1.87,1.87-1.87h0Z"/>
        <path class="cls-3" d="M45.75,133.1h19.83c1.11,0,1.87,.9,1.87,1.87h0c0,1.11-.83,1.87-1.87,1.87h-19.83c-.97,0-1.87-.9-1.87-1.87h0c-.07-.97,.83-1.87,1.87-1.87h0Z"/>
        <path class="cls-3" d="M49.56,143.57h12.34c1.11,0,1.87,.9,1.87,1.87h0c0,1.11-.9,1.87-1.87,1.87h-12.34c-1.11,0-1.87-.9-1.87-1.87h0c-.14-1.11,.76-1.87,1.87-1.87h0Z"/>
        <path class="cls-3" d="M51.37,109.66c1.32,.28,2.98,.28,3.81,.28,1.59,0,3.33-.07,4.92-.49,.07-.07,.21-.07,.42-.21,4.58-6.8,8.53-1.11,2.22,2.5-.97,2.01-1.39,5.13-1.53,6.52-.28,2.08-.28,4.09-.42,6.1,0,.62,0,1.11-.07,1.59-.97-.07-2.08-.07-3.12-.07,0-.49,0-.97,.07-1.59,.07-2.08,.21-4.3,.42-6.38,.21-1.39,.42-3.19,.9-4.92-1.32,.21-2.7,.21-3.81,.21-.69,0-1.53,0-2.29-.07,.97,3.67,.69,8.53,.49,11.3,0,.49,0,.97-.07,1.53-.97-.07-2.08-.07-3.12-.21,0-.49,.07-.97,.07-1.59,.07-2.43,.21-4.72,.07-7.07-.07-.97-.28-3.19-.97-4.72-6.52-2.84-2.7-9.15,2.01-2.7h0Z"/>
        <path class="cls-3" d="M39.23,109.32c5.41,3.67,9.01,8.81,8.6,15.39-.21,3.4-4.37,3.19-4.23-.21,.21-5.2-2.57-8.94-6.8-11.79-2.57-1.8-.55-5.55,2.43-3.4h0Z"/>
        <path class="cls-3" d="M72.24,109.32c-5.41,3.67-8.94,8.81-8.6,15.39,.21,3.4,4.37,3.19,4.3-.21-.28-5.2,2.57-8.94,6.73-11.79,2.7-1.8,.69-5.55-2.43-3.4h0Z"/>
        <path class="cls-4" d="M53.51,6C47.41,1.35,40.62,.11,35.63,7.11l-.83,.97-1.25-.07c-7.07-.42-11.72,2.01-13.04,9.01l-.07,.69-.49,.49c-4.02,3.61-6.31,6.8-6.38,12.2v.9l-.69,.62c-2.57,2.43-4.99,6.1-4.58,9.85v.42l-.07,.42c-.69,1.87-.69,3.33-.69,5.2v.83l-.49,.62c-5.27,5.89-5.82,14.49-.9,20.8l.49,.62v.83c-.07,3.67,1.11,7.28,4.72,9.22l1.11,.62,.07,1.11c.69,7.49,4.02,10.75,11.44,12.69l.83,.21,.49,.69c2.7,4.02,6.8,6.59,11.79,7,4.09,.07,9.22-2.43,12.62-4.3,.62-.42,3.19-1.73,4.09-2.5-.28-30.02-.28-60.19-.28-90.28h0Zm-19.9-.14c6.03-8.39,14.7-6.93,22.12-.9V97.04c-.69,1.11-2.7,2.08-5.27,3.61-3.88,2.22-9.29,4.78-13.94,4.58-4.92-.42-9.98-2.7-13.59-8.04-7.21-1.87-12.13-5.2-13.11-14.63-3.47-1.87-6.1-5.62-5.89-11.23-5.82-7.42-4.92-16.99,.97-23.51,0-2.57,.21-3.88,.83-5.89-.42-4.72,2.7-9.08,5.27-11.51,.07-5.48,2.22-9.29,7.07-13.8,1.8-8.39,7.7-11.09,15.53-10.75h0Z"/>
        <path class="cls-5" d="M58.02,6c6.1-4.58,12.9-5.89,17.89,1.11l.69,.97,1.32-.07c7.21-.42,11.72,2.01,13.04,9.01l.07,.69,.49,.49c4.02,3.61,6.31,6.8,6.38,12.2v.9l.69,.62c2.57,2.43,4.99,6.1,4.58,9.85v.42l.21,.42c.62,1.87,.69,3.33,.69,5.2v.83l.49,.62c5.41,5.89,5.82,14.49,.83,20.8l-.49,.62,.07,.83c.07,3.67-1.11,7.28-4.72,9.22l-1.11,.62-.07,1.11c-.69,7.49-4.09,10.75-11.44,12.69l-.9,.21-.49,.69c-2.57,4.02-6.8,6.59-11.79,7-4.09,.07-9.22-2.43-12.62-4.3-.62-.42-3.19-1.73-4.09-2.5,.28-30.02,.28-60.19,.28-90.28h0Zm19.97-.14c-6.03-8.39-14.7-6.93-22.12-.9V97.04c.69,1.11,2.57,2.08,5.2,3.61,3.88,2.22,9.29,4.78,13.94,4.58,4.92-.42,9.98-2.7,13.59-8.04,7.21-1.87,12.2-5.2,13.11-14.63,3.47-1.87,6.1-5.62,5.89-11.23,5.82-7.42,4.92-16.99-.9-23.51,0-2.57-.21-3.88-.9-5.89,.42-4.72-2.7-9.08-5.27-11.51-.07-5.48-2.22-9.29-7.07-13.8-1.66-8.39-7.7-11.09-15.46-10.75h0Z"/>
      </g>
    </g>
  </g>
</svg>